<?xml version="1.0" encoding="UTF-8"?>
<svg id="Layer_1" data-name="Layer 1" xmlns="http://www.w3.org/2000/svg" viewBox="0 0 1000 236.46">
  <defs>
    <style>
      .cls-1 {
        fill: #000;
      }

      .cls-1, .cls-2, .cls-3 {
        stroke-width: 0px;
      }

      .cls-2 {
        fill: #cfab4d;
      }

      .cls-3 {
        fill: #cdaa4c;
      }
    </style>
  </defs>
  <g id="Bocotek_Logo_tag" data-name="Bocotek Logo tag">
    <g id="Artwork_1" data-name="Artwork 1">
      <g>
        <path class="cls-2" d="M210.1,47.68h40.47c12.77,0,22.38.93,28.79,2.79,6.42,1.85,11.37,5.6,14.89,11.26,3.52,5.66,4.71,14.76,3.52,27.34-.79,8.5-2.78,14.42-5.96,17.79-3.16,3.35-9.06,5.92-17.63,7.71,9.24,1.99,15.34,5.28,18.25,9.86,2.93,4.6,3.96,11.63,3.07,21.12l-1.25,13.51c-.93,9.84-2.82,17.14-5.68,21.88-2.85,4.74-7,7.99-12.43,9.72-5.43,1.74-16.32,2.62-32.66,2.62h-46.98l13.61-145.6ZM243.36,127.54l-3.83,40.88c5.65-.17,9.32-1.02,11.02-2.51,1.68-1.51,2.81-5.21,3.36-11.11l1.28-13.64c.57-6.25.23-10.04-1.03-11.37-1.26-1.33-4.87-2.07-10.8-2.25M248.5,72.54l-3.01,32.26c1.71-.06,3.04-.09,4-.09,3.92,0,6.5-.91,7.74-2.73,1.25-1.82,2.28-7.03,3.09-15.64.42-4.54.26-7.71-.45-9.53-.71-1.82-1.76-2.98-3.13-3.46-1.39-.48-4.13-.74-8.24-.8"/>
        <path class="cls-2" d="M400.15,132.93c-1.37,14.63-2.7,24.96-4.01,31.06-1.31,6.08-4.15,11.63-8.5,16.66-4.37,5.03-10,8.9-16.86,11.59-6.88,2.7-14.73,4.04-23.54,4.04s-15.77-1.27-22.18-3.81c-6.43-2.55-11.42-6.36-15-11.46-3.58-5.09-5.48-10.63-5.69-16.62-.22-6,.39-16.48,1.79-31.46l2.31-24.88c1.37-14.63,2.7-24.96,4.01-31.06,1.31-6.08,4.15-11.63,8.52-16.66,4.35-5.03,9.98-8.9,16.86-11.6,6.88-2.68,14.72-4.04,23.54-4.04,8.36,0,15.75,1.28,22.17,3.83,6.43,2.55,11.42,6.37,15,11.46,3.6,5.09,5.48,10.63,5.69,16.62.22,6-.39,16.48-1.77,31.46l-2.33,24.88ZM363.89,85.16c.63-6.76.63-11.08.02-12.97-.62-1.88-2.16-2.82-4.63-2.82-2.1,0-3.78.76-5.03,2.28-1.25,1.53-2.24,6.03-2.93,13.51l-6.34,67.87c-.79,8.42-.91,13.64-.35,15.61.54,1.97,2.14,2.96,4.81,2.96s4.58-1.14,5.55-3.41c.97-2.28,1.87-7.7,2.67-16.25l6.23-66.79Z"/>
        <path class="cls-2" d="M501.53,91.75h-37.7l1-10.74c.46-5.01.28-8.21-.57-9.6-.85-1.36-2.39-2.05-4.66-2.05-2.47,0-4.43.93-5.86,2.76-1.44,1.84-2.33,4.63-2.67,8.38-.45,4.8-.06,8.42,1.17,10.86,1.17,2.44,4.74,5.41,10.71,8.92,17.08,10.1,27.68,18.36,31.78,24.76,4.1,6.42,5.49,16.74,4.17,30.99-.97,10.37-2.99,18-6.06,22.91-3.07,4.91-8.5,9.03-16.28,12.34-7.78,3.33-16.63,4.98-26.55,4.98-10.89,0-20.01-1.91-27.35-5.74-7.34-3.84-11.93-8.72-13.75-14.66-1.84-5.92-2.24-14.35-1.22-25.25l.89-9.52h37.7l-1.65,17.68c-.51,5.43-.31,8.93.63,10.49.93,1.56,2.75,2.33,5.48,2.33s4.86-.99,6.37-2.96c1.51-1.96,2.45-4.89,2.82-8.78.79-8.53.05-14.12-2.24-16.74-2.36-2.62-8.3-7.03-17.82-13.24-9.52-6.26-15.78-10.8-18.82-13.61-3.02-2.82-5.38-6.71-7.07-11.68-1.7-4.97-2.19-11.32-1.47-19.05,1.03-11.14,3.33-19.27,6.87-24.42,3.55-5.15,8.87-9.18,15.97-12.08,7.1-2.9,15.49-4.37,25.15-4.37,10.57,0,19.42,1.59,26.57,4.77,7.14,3.18,11.69,7.17,13.67,11.99,1.96,4.83,2.41,13.01,1.33,24.56l-.54,5.75Z"/>
        <path class="cls-2" d="M606.68,111.14h-40.71l2.36-25.29c.68-7.34.68-11.93-.02-13.75-.69-1.84-2.51-2.75-5.46-2.75-3.33,0-5.54,1.11-6.65,3.33-1.1,2.21-1.99,6.99-2.68,14.35l-6.31,67.51c-.66,7.05-.63,11.66.06,13.82.69,2.14,2.61,3.22,5.74,3.22s5.08-1.08,6.22-3.24c1.13-2.14,2.07-7.2,2.81-15.18l1.7-18.25h40.73l-.52,5.68c-1.42,15.04-3.56,25.72-6.43,32.01-2.87,6.29-8.44,11.82-16.71,16.55s-18.14,7.11-29.61,7.11-21.55-2.01-28.91-6.03c-7.34-4.01-11.94-9.57-13.79-16.66-1.85-7.1-2.11-17.77-.77-32.03l3.97-42.5c.97-10.49,2.1-18.36,3.36-23.59,1.26-5.25,4.04-10.29,8.32-15.15,4.29-4.86,9.97-8.67,17.02-11.46,7.05-2.78,15-4.17,23.82-4.17,11.99,0,21.66,2.14,29.06,6.46,7.39,4.3,12,9.67,13.85,16.11,1.84,6.45,2.13,16.46.86,30.05l-1.3,13.82Z"/>
        <path class="cls-2" d="M708.05,132.93c-1.37,14.63-2.7,24.96-4.01,31.06-1.31,6.08-4.15,11.63-8.5,16.66-4.37,5.03-9.98,8.9-16.86,11.59-6.88,2.7-14.73,4.04-23.56,4.04-8.36,0-15.75-1.27-22.17-3.81-6.42-2.55-11.42-6.36-15.01-11.46-3.56-5.09-5.46-10.63-5.68-16.62-.22-6,.39-16.48,1.77-31.46l2.33-24.88c1.37-14.63,2.7-24.96,4.01-31.06,1.31-6.08,4.15-11.63,8.52-16.66,4.35-5.03,9.98-8.9,16.86-11.6,6.88-2.68,14.72-4.04,23.54-4.04,8.36,0,15.75,1.28,22.17,3.83,6.43,2.55,11.43,6.37,15.01,11.46s5.46,10.63,5.68,16.62c.22,6-.39,16.48-1.77,31.46l-2.33,24.88ZM671.8,85.16c.63-6.76.63-11.08.02-12.97-.62-1.88-2.16-2.82-4.63-2.82-2.1,0-3.78.76-5.03,2.28-1.25,1.53-2.22,6.03-2.93,13.51l-6.34,67.87c-.79,8.42-.91,13.64-.35,15.61.54,1.97,2.14,2.96,4.81,2.96s4.58-1.14,5.55-3.41c.97-2.28,1.87-7.7,2.67-16.25l6.23-66.79Z"/>
        <polygon class="cls-2" points="809.12 47.68 806.41 76.76 782.5 76.76 771.62 193.29 730.91 193.29 741.78 76.76 717.7 76.76 720.43 47.68 809.12 47.68"/>
        <polygon class="cls-2" points="814.52 47.68 882.32 47.68 879.61 76.76 852.51 76.76 849.94 104.44 875.25 104.44 872.66 132.12 847.35 132.12 844.35 164.19 874.08 164.19 871.37 193.29 800.91 193.29 814.52 47.68"/>
        <polygon class="cls-2" points="989.48 47.68 960.06 113.42 978.17 193.29 936.22 193.29 925.67 130.87 919.84 193.29 879.12 193.29 892.73 47.68 933.44 47.68 928.15 104.24 951.42 47.68 989.48 47.68"/>
        <g id="Artwork_6" data-name="Artwork 6">
          <g>
            <path class="cls-1" d="M185.83,120.24c0-.23-.03-.46-.07-.69l-14.71-58.78c-1.33-4.65-5.06-8.3-9.8-9.6l-58.94-14.4c-.22-.03-.44-.04-.64-.06-.08,0-.18,0-.27,0-.08,0-.18,0-.26,0-.21.01-.43.03-.64.06l-58.69,14.33c-4.98,1.27-8.9,5.14-10.15,10.04h0l-14.62,58.41c-.04.23-.06.46-.06.69,0,.08,0,.16,0,.24s0,.16,0,.24c0,.23.03.46.06.69l14.62,58.42h0c1.24,4.84,5.08,8.67,9.98,9.98l58.86,14.38c.22.04.43.06.64.06.09.01.18,0,.26,0,.09,0,.19.01.27,0,.21,0,.43-.02.64-.06l59.11-14.43c4.64-1.33,8.29-4.93,9.62-9.5l14.72-58.84c.04-.23.06-.47.07-.69,0-.08,0-.16,0-.24s0-.17,0-.24Z"/>
            <path class="cls-3" d="M119.07,133.27c-4.7.74-9.11,5.19-9.85,9.95l-9.17,59.18-9.17-59.18c-.74-4.76-5.15-9.22-9.85-9.95l-58.17-9.13,58.17-9.13c4.7-.75,9.11-5.19,9.85-9.96l9.17-59.17,9.17,59.17c.74,4.77,5.15,9.22,9.85,9.96l58.17,9.13-58.17,9.13Z"/>
          </g>
        </g>
      </g>
    </g>
  </g>
</svg>